<?xml version="1.0" encoding="UTF-8"?>
<svg width="25px" height="23px" viewBox="0 0 25 23" version="1.1" xmlns="http://www.w3.org/2000/svg" xmlns:xlink="http://www.w3.org/1999/xlink">
    <!-- Generator: sketchtool 52.4 (67378) - http://www.bohemiancoding.com/sketch -->
    <title>AE45DEB0-3050-48A2-BCE4-5431D33412AA</title>
    <desc>Created with sketchtool.</desc>
    <g id="Page-1" stroke="none" stroke-width="1" fill="none" fill-rule="evenodd">
        <g id="Assets" transform="translate(-250.000000, -297.000000)" fill="#00AFAA" fill-rule="nonzero">
            <g id="security-protection-icons-04" transform="translate(262.486377, 309.845148) rotate(-49.000000) translate(-262.486377, -309.845148) translate(254.986377, 295.845148)">
                <path d="M7.70523944,15.5955814 C3.38025843,15.5955814 -0.125831419,12.0894915 -0.125831419,7.76451052 C-0.125831419,3.4395295 3.38025843,-0.0665603463 7.70523944,-0.0665603463 C12.0302205,-0.0665603463 15.5363103,3.4395295 15.5363103,7.76451052 C15.5363103,12.0894915 12.0302205,15.5955814 7.70523944,15.5955814 Z M7.70523944,14.3955814 C11.3674788,14.3955814 14.3363103,11.4267498 14.3363103,7.76451052 C14.3363103,4.1022712 11.3674788,1.13343965 7.70523944,1.13343965 C4.04300013,1.13343965 1.07416858,4.1022712 1.07416858,7.76451052 C1.07416858,11.4267498 4.04300013,14.3955814 7.70523944,14.3955814 Z" id="Oval"></path>
                <path d="M7.70523944,7.59398657 C6.42456782,7.59398657 5.38637834,6.55579709 5.38637834,5.27512546 C5.38637834,3.99445384 6.42456782,2.95626436 7.70523944,2.95626436 C8.98591107,2.95626436 10.0241005,3.99445384 10.0241005,5.27512546 C10.0241005,6.55579709 8.98591107,7.59398657 7.70523944,7.59398657 Z M7.70523944,6.39398657 C8.32316937,6.39398657 8.82410055,5.89305539 8.82410055,5.27512546 C8.82410055,4.65719554 8.32316937,4.15626436 7.70523944,4.15626436 C7.08730952,4.15626436 6.58637834,4.65719554 6.58637834,5.27512546 C6.58637834,5.89305539 7.08730952,6.39398657 7.70523944,6.39398657 Z" id="Oval"></path>
                <path d="M10.9614279,25.2969513 C11.2604482,25.5134832 11.2948409,25.9461259 11.0337861,26.2071807 L8.84075638,28.4002104 C8.61684702,28.6241197 8.25747941,28.6354807 8.01987399,28.4261617 L5.53048894,26.233132 C5.4011916,26.1192272 5.32710726,25.9552306 5.32710726,25.7829166 L5.32710726,14.8177682 C5.32710726,14.4863973 5.59573641,14.2177682 5.92710726,14.2177682 C6.25847811,14.2177682 6.52710726,14.4863973 6.52710726,14.8177682 L6.52710726,25.5118708 L8.39048906,27.1534214 L9.68771535,25.8561951 L8.53875501,25.0241893 C8.24648079,24.8125425 8.20580763,24.3926404 8.45202773,24.1288331 L9.74163333,22.7471128 L8.43911488,21.2585203 C8.23110755,21.0207977 8.24303712,20.6625132 8.46639683,20.4391535 L9.6580942,19.2474561 L8.50981724,18.3042286 C8.21349485,18.0608209 8.21843333,17.6057219 8.51996796,17.3688019 L9.95852383,16.238508 L10.0097667,14.4450059 C10.0192306,14.1137702 10.2954222,13.8529226 10.6266579,13.8623865 C10.9578935,13.8718503 11.2187411,14.1480419 11.2092773,14.4792776 L11.1500062,16.5537651 C11.1449194,16.7318035 11.0609958,16.8983794 10.9209439,17.0084203 L9.84858529,17.8509877 L10.9310946,18.7401918 C11.2050326,18.9652123 11.2251903,19.3774163 10.974515,19.6280916 L9.71184653,20.8907601 L11.0017969,22.3649891 C11.2045746,22.596735 11.1989948,22.9443642 10.9888841,23.1694828 L9.79296595,24.4508237 L10.9614279,25.2969513 Z" id="Shape"></path>
            </g>
        </g>
    </g>
</svg>