<?xml version="1.0" encoding="UTF-8"?>
<svg width="18px" height="26px" viewBox="0 0 18 26" version="1.1" xmlns="http://www.w3.org/2000/svg" xmlns:xlink="http://www.w3.org/1999/xlink">
    <!-- Generator: sketchtool 52.4 (67378) - http://www.bohemiancoding.com/sketch -->
    <title>1979417D-1227-4FD6-BE0F-2D2EF1BAB867</title>
    <desc>Created with sketchtool.</desc>
    <g id="Page-1" stroke="none" stroke-width="1" fill="none" fill-rule="evenodd">
        <g id="Assets" transform="translate(-253.000000, -107.000000)" fill="#00AFAA" fill-rule="nonzero">
            <g id="security-protection-icons-03" transform="translate(253.000000, 107.000000)">
                <path d="M15.56,24.6666667 C15.8340238,24.6666667 16.08,24.4365599 16.08,24.2 L16.08,12.4666667 C16.08,12.2113708 15.8686292,12 15.6133333,12 L2.44,12 C2.18470418,12 1.97333333,12.2113708 1.97333333,12.4666667 L1.97333333,24.2 C1.97333333,24.4552958 2.18470418,24.6666667 2.44,24.6666667 L15.56,24.6666667 Z M15.56,25.8666667 L2.44,25.8666667 C1.52196248,25.8666667 0.773333333,25.1180375 0.773333333,24.2 L0.773333333,12.4666667 C0.773333333,11.5486292 1.52196248,10.8 2.44,10.8 L15.6133333,10.8 C16.5313708,10.8 17.28,11.5486292 17.28,12.4666667 L17.28,24.2 C17.28,25.1178487 16.4795394,25.8666667 15.56,25.8666667 Z" id="Shape"></path>
                <g id="Group" transform="translate(7.466667, 15.466667)">
                    <path d="M1.69333333,3.09333333 C1.06741062,3.09333333 0.56,2.58592272 0.56,1.96 C0.56,1.33407728 1.06741062,0.826666667 1.69333333,0.826666667 C2.31925605,0.826666667 2.82666667,1.33407728 2.82666667,1.96 C2.82666667,2.58592272 2.31925605,3.09333333 1.69333333,3.09333333 Z M1.69333333,1.89333333 C1.65651435,1.89333333 1.62666667,1.92318102 1.62666667,1.96 C1.62666667,1.99681898 1.65651435,2.02666667 1.69333333,2.02666667 C1.73015232,2.02666667 1.76,1.99681898 1.76,1.96 C1.76,1.92318102 1.73015232,1.89333333 1.69333333,1.89333333 Z" id="Oval"></path>
                    <path d="M0.933333333,4.52 L0.933333333,1.96 C0.933333333,1.16 2.13333333,1.16 2.13333333,1.96 L2.13333333,4.52 C2.13333333,5.32 0.933333333,5.32 0.933333333,4.52 Z" id="Shape"></path>
                </g>
                <path d="M4.26666667,11.1333333 C4.26666667,11.4647042 3.99803752,11.7333333 3.66666667,11.7333333 C3.33529582,11.7333333 3.06666667,11.4647042 3.06666667,11.1333333 L3.06666667,6.33333333 C3.06666667,3.22862915 5.62862915,0.666666667 8.73333333,0.666666667 C11.8380375,0.666666667 14.4,3.22862915 14.4,6.33333333 L14.4,11.1333333 C14.4,11.4647042 14.1313708,11.7333333 13.8,11.7333333 C13.4686292,11.7333333 13.2,11.4647042 13.2,11.1333333 L13.2,6.33333333 C13.2,3.89137085 11.1752958,1.86666667 8.73333333,1.86666667 C6.29137085,1.86666667 4.26666667,3.89137085 4.26666667,6.33333333 L4.26666667,11.1333333 Z" id="Shape"></path>
            </g>
        </g>
    </g>
</svg>