<?xml version="1.0" encoding="UTF-8"?>
<svg width="21px" height="14px" viewBox="0 0 21 14" version="1.1" xmlns="http://www.w3.org/2000/svg" xmlns:xlink="http://www.w3.org/1999/xlink">
    <!-- Generator: Sketch 54.1 (76490) - https://sketchapp.com -->
    <title>icon</title>
    <desc>Created with Sketch.</desc>
    <g id="Page-1" stroke="none" stroke-width="1" fill="none" fill-rule="evenodd">
        <g id="Wordpress-settings-(Custom)" transform="translate(-13.000000, -379.000000)" fill="#555D66">
            <g id="icon" transform="translate(13.000000, 379.000000)">
                <path d="M11.7803728,7.04685964 C11.7803728,9.71305039 9.61920155,11.8744393 6.95285814,11.8744393 C4.28689187,11.8744393 2.1257206,9.71305039 2.1257206,7.04685964 C2.1257206,4.38066888 4.28689187,2.2194685 6.95285814,2.2194685 C9.61920155,2.2194685 11.7803728,4.38066888 11.7803728,7.04685964 M6.99962287,0 L6.99962287,0 C3.13380206,0 0,3.13403284 0,6.99990572 L0,14 L6.99962287,14 C10.8656322,14 14,10.8659672 14,6.99990572 C14,3.13403284 10.8656322,0 6.99962287,0" id="Fill-14"></path>
                <g id="Group-5" transform="translate(15.000000, 8.000000)" fill-rule="nonzero">
                    <path d="M2.5,0.5 L2.5,5.5 C2.5,5.77614237 2.72385763,6 3,6 C3.27614237,6 3.5,5.77614237 3.5,5.5 L3.5,0.5 C3.5,0.223857625 3.27614237,0 3,0 C2.72385763,0 2.5,0.223857625 2.5,0.5 Z" id="Line-2"></path>
                    <path d="M5.5,2.5 L0.5,2.5 C0.223857625,2.5 0,2.72385763 0,3 C0,3.27614237 0.223857625,3.5 0.5,3.5 L5.5,3.5 C5.77614237,3.5 6,3.27614237 6,3 C6,2.72385763 5.77614237,2.5 5.5,2.5 Z" id="Line-2"></path>
                </g>
                <path d="M6.99990212,4 C5.34305569,4 4,5.34325144 4,7.00009788 C4,7.28295977 4.03915044,7.55681707 4.11236175,7.81638446 L5.95889204,7.2943134 C5.93226975,7.20074386 5.91797984,7.10208476 5.91797984,7.00009788 C5.91797984,6.40246648 6.40227073,5.91797984 6.99990212,5.91797984 C7.59753352,5.91797984 8.08182441,6.40246648 8.08182441,7.00009788 C8.08182441,7.59753352 7.59753352,8.08221591 6.99990212,8.08221591 C6.90261329,8.08221591 6.80826074,8.06910052 6.71860624,8.045023 L6.2198297,9.89742586 C6.46863071,9.96417735 6.72995987,10 6.99990212,10 C8.65674856,10 10,8.65694431 10,7.00009788 C10,5.34325144 8.65674856,4 6.99990212,4" id="Fill-15"></path>
            </g>
        </g>
    </g>
</svg>