<?xml version="1.0" encoding="UTF-8"?>
<svg width="29px" height="17px" viewBox="0 0 29 17" version="1.1" xmlns="http://www.w3.org/2000/svg" xmlns:xlink="http://www.w3.org/1999/xlink">
    <!-- Generator: sketchtool 54 (76480) - https://sketchapp.com -->
    <title>A3FDE648-1194-41D3-B3CD-7E975595D967</title>
    <desc>Created with sketchtool.</desc>
    <g id="custom-for-clients" stroke="none" stroke-width="1" fill="none" fill-rule="evenodd">
        <g id="examples" transform="translate(-1336.000000, -421.000000)" fill="#00AFAA" fill-rule="nonzero">
            <g id="Group-18-Copy" transform="translate(1224.000000, 359.000000)">
                <g id="Group-15" transform="translate(113.000000, 60.000000)">
                    <g id="car2" transform="translate(0.000000, 3.000000)">
                        <path d="M23.976,12.298 C23.997854,12.298 24.016,12.2785579 24.016,12.258 L24.016,7.398 C24.016,7.35014237 24.0238576,7.358 23.976,7.358 L3.024,7.358 C2.97614237,7.358 2.984,7.35014237 2.984,7.398 L2.984,12.258 C2.984,12.3058576 2.97614237,12.298 3.024,12.298 L23.976,12.298 Z M23.976,13.298 L3.024,13.298 C2.42385763,13.298 1.984,12.8581424 1.984,12.258 L1.984,7.398 C1.984,6.79785763 2.42385763,6.358 3.024,6.358 L23.976,6.358 C24.5761424,6.358 25.016,6.79785763 25.016,7.398 L25.016,12.258 C25.016,12.8160135 24.566146,13.298 23.976,13.298 Z" id="Path"></path>
                        <g id="Group" transform="translate(3.780000, 12.420000)">
                            <path d="M0.986,0.878 L0.986,2.16 C0.986,2.20785763 0.978142375,2.2 1.026,2.2 L3.618,2.2 C3.66585763,2.2 3.658,2.20785763 3.658,2.16 L3.658,0.878 L0.986,0.878 Z M3.618,3.2 L1.026,3.2 C0.425857625,3.2 -0.014,2.76014237 -0.014,2.16 L-0.014,0.378 C-0.014,0.101857625 0.209857625,-0.122 0.486,-0.122 L4.158,-0.122 C4.43414237,-0.122 4.658,0.101857625 4.658,0.378 L4.658,2.16 C4.658,2.76014237 4.21814237,3.2 3.618,3.2 Z" id="Path"></path>
                            <path d="M15.822,3.2 C15.2218576,3.2 14.782,2.76014237 14.782,2.16 L14.782,0.378 C14.782,0.101857625 15.0058576,-0.122 15.282,-0.122 L18.954,-0.122 C19.2301424,-0.122 19.454,0.101857625 19.454,0.378 L19.454,2.16 C19.454,2.76014237 19.0141424,3.2 18.414,3.2 L15.822,3.2 Z M15.782,2.16 C15.782,2.20785763 15.7741424,2.2 15.822,2.2 L18.414,2.2 C18.4618576,2.2 18.454,2.20785763 18.454,2.16 L18.454,0.878 L15.782,0.878 L15.782,2.16 Z" id="Path"></path>
                        </g>
                        <path d="M10.027,10.274 L17.027,10.274 L17.027,9.274 L10.027,9.274 L10.027,10.274 Z M9.527,8.274 L17.527,8.274 C17.8031424,8.274 18.027,8.49785763 18.027,8.774 L18.027,10.774 C18.027,11.0501424 17.8031424,11.274 17.527,11.274 L9.527,11.274 C9.25085763,11.274 9.027,11.0501424 9.027,10.774 L9.027,8.774 C9.027,8.49785763 9.25085763,8.274 9.527,8.274 Z" id="Rectangle"></path>
                        <path d="M5.94,11.354 C5.03756672,11.354 4.306,10.6224333 4.306,9.72 C4.306,8.81756672 5.03756672,8.086 5.94,8.086 C6.84243328,8.086 7.574,8.81756672 7.574,9.72 C7.574,10.6224333 6.84243328,11.354 5.94,11.354 Z M5.94,10.354 C6.29014853,10.354 6.574,10.0701485 6.574,9.72 C6.574,9.36985147 6.29014853,9.086 5.94,9.086 C5.58985147,9.086 5.306,9.36985147 5.306,9.72 C5.306,10.0701485 5.58985147,10.354 5.94,10.354 Z" id="Oval"></path>
                        <path d="M21.168,11.354 C20.2655667,11.354 19.534,10.6224333 19.534,9.72 C19.534,8.81756672 20.2655667,8.086 21.168,8.086 C22.0704333,8.086 22.802,8.81756672 22.802,9.72 C22.802,10.6224333 22.0704333,11.354 21.168,11.354 Z M21.168,10.354 C21.5181485,10.354 21.802,10.0701485 21.802,9.72 C21.802,9.36985147 21.5181485,9.086 21.168,9.086 C20.8178515,9.086 20.534,9.36985147 20.534,9.72 C20.534,10.0701485 20.8178515,10.354 21.168,10.354 Z" id="Oval"></path>
                        <path d="M23.6585542,6.05244085 C23.8350419,6.26482429 23.8059426,6.58006658 23.5935591,6.75655423 C23.3811757,6.93304187 23.0659334,6.90394258 22.8894458,6.69155915 L19.6975656,2.85034752 C19.378446,2.45144801 18.8868604,2.228 18.36,2.228 L8.64,2.228 C8.1217949,2.228 7.65304448,2.45692463 7.29655423,2.85755915 L4.11055423,6.69155915 C3.93406658,6.90394258 3.61882429,6.93304187 3.40644085,6.75655423 C3.19405742,6.58006658 3.16495813,6.26482429 3.34144577,6.05244085 L6.53829534,2.20581808 C7.0882158,1.58715757 7.82363367,1.228 8.64,1.228 L18.36,1.228 C19.1831396,1.228 19.9644112,1.58312342 20.4725542,2.21844085 L23.6585542,6.05244085 Z" id="Path"></path>
                        <path d="M24.5048995,6.27132545 C24.6041723,6.28030281 24.6041723,6.28030281 24.7031678,6.28908305 C25.3395461,6.34506094 25.7602109,6.36100062 26.0147725,6.33334979 C25.9594485,6.26422382 25.8826622,6.177769 25.7824466,6.07755339 C25.7463671,6.0414739 25.7106744,6.0095354 25.6754259,5.98155349 C25.3225246,5.70140414 24.9306267,5.81236094 24.4673035,6.26792349 C24.4796466,6.26903928 24.4921769,6.27017315 24.5048995,6.27132545 Z M23.6573783,5.66567569 C24.469314,4.81076846 25.4060806,4.49094511 26.2971776,5.19833909 C26.3627797,5.25041703 26.4268991,5.30779237 26.4895534,5.37044661 C27.2818171,6.16271028 27.4011803,6.93220004 26.5398217,7.23728186 C26.1395131,7.37906586 25.625053,7.37403636 24.615543,7.28523659 C24.5146752,7.27629021 24.5146752,7.27629021 24.4146975,7.26724894 C23.8741577,7.21829159 23.6945474,7.20391865 23.4714942,7.19565742 C23.0921047,7.18160595 22.8661689,6.76648828 23.0603536,6.44025807 C23.1798316,6.23953493 23.3834936,5.95405566 23.6573783,5.66567569 Z" id="Path"></path>
                        <path d="M3.93964644,6.44025807 C4.13383109,6.76648828 3.90789531,7.18160595 3.52850583,7.19565742 C3.30545263,7.20391865 3.12584231,7.21829159 2.58530251,7.26724894 C2.48532477,7.27629021 2.48532477,7.27629021 2.38445704,7.28523659 C1.37494696,7.37403636 0.860486934,7.37906586 0.460178337,7.23728186 C-0.401180336,6.93220004 -0.281817066,6.16271028 0.510446609,5.37044661 C0.57310085,5.30779237 0.637220303,5.25041703 0.702822359,5.19833909 C1.59391944,4.49094511 2.53068598,4.81076846 3.34262168,5.66567569 C3.61650636,5.95405566 3.82016838,6.23953493 3.93964644,6.44025807 Z M1.32457409,5.98155349 C1.28932556,6.0095354 1.25363288,6.0414739 1.21755339,6.07755339 C1.11733778,6.177769 1.04055154,6.26422382 0.985227456,6.33334979 C1.23978908,6.36100062 1.66045387,6.34506094 2.29683215,6.28908305 C2.39582766,6.28030281 2.39582766,6.28030281 2.4951005,6.27132545 C2.50782312,6.27017315 2.52035342,6.26903928 2.53269646,6.26792349 C2.06937332,5.81236094 1.6774754,5.70140414 1.32457409,5.98155349 Z" id="Path"></path>
                        <path d="M14.472,-0.5 C14.6906925,-0.5 14.8840095,-0.357875095 14.94924,-0.149137497 L15.48924,1.5788625 C15.5898541,1.9008278 15.3493201,2.228 15.012,2.228 L11.502,2.228 C11.1646799,2.228 10.9241459,1.9008278 11.02476,1.5788625 L11.56476,-0.149137497 C11.6299905,-0.357875095 11.8233075,-0.5 12.042,-0.5 L14.472,-0.5 Z M12.4095955,0.5 L12.1820955,1.228 L14.3319045,1.228 L14.1044045,0.5 L12.4095955,0.5 Z" id="Path"></path>
                    </g>
                </g>
            </g>
        </g>
    </g>
</svg>