<?xml version="1.0" encoding="UTF-8"?>
<svg width="44px" height="32px" viewBox="0 0 44 32" version="1.1" xmlns="http://www.w3.org/2000/svg" xmlns:xlink="http://www.w3.org/1999/xlink">
    <!-- Generator: sketchtool 54 (76480) - https://sketchapp.com -->
    <title>F4F11EEA-BD2A-47C9-A80E-F487C61C593F</title>
    <desc>Created with sketchtool.</desc>
    <g id="custom-for-clients" stroke="none" stroke-width="1" fill="none" fill-rule="evenodd">
        <g id="examples" transform="translate(-759.000000, -291.000000)" fill="#FFFFFF" fill-rule="nonzero">
            <g id="Group-18-Copy-2" transform="translate(56.000000, 209.000000)">
                <g id="Group-3" transform="translate(525.000000, 56.000000)">
                    <g id="Group-4">
                        <g id="car" transform="translate(178.000000, 26.000000)">
                            <path d="M42.6024847,17.0112244 L41.0904157,16.0549348 L40.3163582,10.4930106 C40.202539,9.06271023 39.0604225,7.93727287 37.6666828,7.93727287 L33.4156895,7.93727287 L33.4156895,7 C33.4156895,5.8954305 32.520259,5 31.4156895,5 L29.8014827,5 C28.6969132,5 27.8014827,5.8954305 27.8014827,7 L27.8014827,7.93727287 L23.3328811,7.93727287 C21.9400136,7.93727287 20.7970249,9.06271023 20.6832057,10.4930106 L19.9187421,16.0494583 L18.3979536,17.0110982 C17.5277321,17.5613653 17.0004886,18.5194514 17.0012943,19.5490526 L17.0058083,25.3173564 C17.0064541,26.1426807 17.6756929,26.811396 18.5010175,26.811396 L18.5010175,26.811396 L18.498401,29.7295009 C18.498401,30.9840943 19.4678263,32 20.6653261,32 C21.8628259,32 22.8322512,30.9840943 22.8322512,29.7295009 L22.8300707,26.811396 L38.173418,26.811396 L38.1703653,29.7295009 C38.1703653,30.9840943 39.1406629,32 40.3355461,32 C41.5334819,32 42.5037794,30.9840943 42.5037794,29.7295009 L42.5007268,26.811396 L42.5007268,26.811396 C43.3257751,26.811396 43.9947559,26.1428404 43.9952805,25.3177923 L43.9989486,19.5486149 C43.9996031,18.5192523 43.472462,17.561431 42.6024847,17.0112244 Z M20.6103789,22.8751035 C19.6078108,22.8751035 18.7958135,22.0230388 18.7958135,20.9724481 C18.7958135,19.9223137 19.6078108,19.070249 20.6103789,19.070249 C21.6120748,19.070249 22.4258165,19.9223137 22.4258165,20.9724481 C22.4253804,22.0230388 21.6116387,22.8751035 20.6103789,22.8751035 Z M24.0737959,23.602576 L24.0768485,20.183364 C24.0768485,19.7100962 24.4440353,19.3244536 24.8958232,19.3244536 L36.0836806,19.3244536 C36.5359046,19.3244536 36.9026553,19.7100962 36.9026553,20.183364 L36.9052718,23.602576 L24.0737959,23.602576 Z M22.2583584,15.7199506 L22.5823723,10.6002603 C22.6421165,9.85727084 23.2356333,9.87004953 23.9586685,9.87004953 L37.0461285,9.87004953 C37.7695998,9.87004953 38.3622444,9.85727084 38.424169,10.6002603 L38.7473108,15.7199506 L22.2583584,15.7199506 Z M40.3896211,22.8751035 C39.3879252,22.8751035 38.5750557,22.0230388 38.5750557,20.9724481 C38.5750557,19.9223137 39.3879252,19.070249 40.3896211,19.070249 C41.3921892,19.070249 42.2041865,19.9223137 42.2041865,20.9724481 C42.2041865,22.0230388 41.3921892,22.8751035 40.3896211,22.8751035 Z" id="Shape"></path>
                            <g id="Group">
                                <ellipse id="Oval" cx="6.94174672" cy="2.56222222" rx="2.50652174" ry="2.56222222"></ellipse>
                                <path d="M4.00000759,5.828 L9.76348585,5.82444444 L9.76435541,5.81866667 L18.2413119,3.17733333 C20.0208772,2.67733333 20.6204424,4.936 19.0482685,5.45244444 L10.5647902,8.38933333 L10.5673989,30.3817778 C10.5673989,31.2173333 9.9047902,31.896 9.08609454,31.896 C8.26696411,31.896 7.6047902,31.2173333 7.6047902,30.3817778 L7.60261628,18.7533333 L6.2795728,18.7533333 L6.28305107,30.3817778 C6.28305107,31.2173333 5.6195728,31.896 4.80174672,31.896 C3.98305107,31.896 3.3195728,31.2173333 3.3195728,30.3817778 L3.31261628,9.716 L2.25305107,9.69333333 L2.25305107,17.7662222 C2.25305107,19.3906667 -0.00477502139,19.3906667 7.58730581e-06,17.7662222 L7.58730581e-06,9.52177778 C0.000877152523,7.016 1.5495728,5.828 4.00000759,5.828 Z" id="Path"></path>
                            </g>
                        </g>
                    </g>
                </g>
            </g>
        </g>
    </g>
</svg>