<?xml version="1.0" encoding="UTF-8"?>
<svg width="28px" height="17px" viewBox="0 0 28 17" version="1.1" xmlns="http://www.w3.org/2000/svg" xmlns:xlink="http://www.w3.org/1999/xlink">
    <!-- Generator: sketchtool 54 (76480) - https://sketchapp.com -->
    <title>1B71CE4C-9A7F-496E-9DD0-B61090C75BED</title>
    <desc>Created with sketchtool.</desc>
    <g id="custom-for-clients" stroke="none" stroke-width="1" fill="none" fill-rule="evenodd">
        <g id="examples" transform="translate(-1334.000000, -235.000000)" fill="#FFFFFF" fill-rule="nonzero">
            <g id="Group-18" transform="translate(1224.000000, 172.000000)">
                <g id="Group-11" transform="translate(99.500000, 54.000000)">
                    <g id="Group-2" transform="translate(10.000000, 6.000000)">
                        <g id="car2" transform="translate(0.000000, 3.000000)">
                            <path d="M24.916,13.198 L24.916,8.458 L4.084,8.458 L4.084,13.198 L24.916,13.198 Z M24.976,14.398 L4.024,14.398 C3.36862915,14.398 2.884,13.9133708 2.884,13.258 L2.884,8.398 C2.884,7.74262915 3.36862915,7.258 4.024,7.258 L24.976,7.258 C25.6313708,7.258 26.116,7.74262915 26.116,8.398 L26.116,13.258 C26.116,13.8697591 25.6229752,14.398 24.976,14.398 Z" id="Path"></path>
                            <g id="Group" transform="translate(4.780000, 13.420000)">
                                <path d="M3.558,2.1 L3.558,0.978 L1.086,0.978 L1.086,2.1 L3.558,2.1 Z M3.618,3.3 L1.026,3.3 C0.37062915,3.3 -0.114,2.81537085 -0.114,2.16 L-0.114,0.378 C-0.114,0.0466291501 0.15462915,-0.222 0.486,-0.222 L4.158,-0.222 C4.48937085,-0.222 4.758,0.0466291501 4.758,0.378 L4.758,2.16 C4.758,2.81537085 4.27337085,3.3 3.618,3.3 Z" id="Path"></path>
                                <path d="M15.822,3.3 C15.1666292,3.3 14.682,2.81537085 14.682,2.16 L14.682,0.378 C14.682,0.0466291501 14.9506292,-0.222 15.282,-0.222 L18.954,-0.222 C19.2853708,-0.222 19.554,0.0466291501 19.554,0.378 L19.554,2.16 C19.554,2.81537085 19.0693708,3.3 18.414,3.3 L15.822,3.3 Z M18.354,2.1 L18.354,0.978 L15.882,0.978 L15.882,2.1 L18.354,2.1 Z" id="Path"></path>
                            </g>
                            <path d="M11.127,11.174 L17.927,11.174 L17.927,10.374 L11.127,10.374 L11.127,11.174 Z M10.527,9.174 L18.527,9.174 C18.8583708,9.174 19.127,9.44262915 19.127,9.774 L19.127,11.774 C19.127,12.1053708 18.8583708,12.374 18.527,12.374 L10.527,12.374 C10.1956292,12.374 9.927,12.1053708 9.927,11.774 L9.927,9.774 C9.927,9.44262915 10.1956292,9.174 10.527,9.174 Z" id="Rectangle"></path>
                            <path d="M6.94,12.454 C5.98233824,12.454 5.206,11.6776618 5.206,10.72 C5.206,9.76233824 5.98233824,8.986 6.94,8.986 C7.89766176,8.986 8.674,9.76233824 8.674,10.72 C8.674,11.6776618 7.89766176,12.454 6.94,12.454 Z M6.94,11.254 C7.23492006,11.254 7.474,11.0149201 7.474,10.72 C7.474,10.4250799 7.23492006,10.186 6.94,10.186 C6.64507994,10.186 6.406,10.4250799 6.406,10.72 C6.406,11.0149201 6.64507994,11.254 6.94,11.254 Z" id="Oval"></path>
                            <path d="M22.168,12.454 C21.2103382,12.454 20.434,11.6776618 20.434,10.72 C20.434,9.76233824 21.2103382,8.986 22.168,8.986 C23.1256618,8.986 23.902,9.76233824 23.902,10.72 C23.902,11.6776618 23.1256618,12.454 22.168,12.454 Z M22.168,11.254 C22.4629201,11.254 22.702,11.0149201 22.702,10.72 C22.702,10.4250799 22.4629201,10.186 22.168,10.186 C21.8730799,10.186 21.634,10.4250799 21.634,10.72 C21.634,11.0149201 21.8730799,11.254 22.168,11.254 Z" id="Oval"></path>
                            <path d="M24.7354651,6.98852903 C24.9472502,7.24338915 24.9123311,7.6216799 24.657471,7.83346507 C24.4026109,8.04525024 24.0243201,8.0103311 23.8125349,7.75547097 L20.6194787,3.91281703 C20.3198495,3.53828047 19.8572324,3.328 19.36,3.328 L9.64,3.328 C9.15161102,3.328 8.70952734,3.54390133 8.37346507,3.92147097 L5.18746507,7.75547097 C4.9756799,8.0103311 4.59738915,8.04525024 4.34252903,7.83346507 C4.0876689,7.6216799 4.05274976,7.24338915 4.26453493,6.98852903 L7.46355441,3.1393817 C8.03173293,2.50018086 8.79381755,2.128 9.64,2.128 L19.36,2.128 C20.2127676,2.128 21.0230077,2.49629096 21.5494651,3.15452903 L24.7354651,6.98852903 Z" id="Path"></path>
                            <path d="M25.7119303,7.1894677 C26.1971437,7.23214863 26.555899,7.25107192 26.8060008,7.245711 C26.7775447,7.21524034 26.7461583,7.18268644 26.7117359,7.14826407 C26.6783139,7.11484206 26.6454639,7.08544724 26.6132507,7.05987493 C26.3498126,6.85074559 26.0572424,6.89582193 25.703075,7.18868228 C25.7059369,7.18893612 25.7088867,7.18919775 25.7119303,7.1894677 Z M24.5848688,6.59681082 C25.427936,5.70912451 26.4165699,5.37159303 27.3593528,6.12001766 C27.4279902,6.1745052 27.4949524,6.23442422 27.5602641,6.29973593 C28.3957386,7.13521047 28.5288116,7.99308187 27.5732081,8.33154399 C27.1533063,8.48026762 26.6337601,8.4751884 25.6067805,8.38485195 C25.5057255,8.37588895 25.5057255,8.37588895 25.4056773,8.36684129 C24.8671997,8.31807071 24.6883276,8.30375685 24.467793,8.2955889 C24.0125256,8.27872715 23.7414027,7.78058593 23.9744243,7.38910968 C24.0973813,7.18254191 24.3050711,6.89141679 24.5848688,6.59681082 Z" id="Path"></path>
                            <path d="M5.02557573,7.38910968 C5.25859731,7.78058593 4.98747438,8.27872715 4.532207,8.2955889 C4.31167236,8.30375685 4.13280032,8.31807071 3.59432272,8.36684129 C3.49427448,8.37588895 3.49427448,8.37588895 3.39321953,8.38485195 C2.36623985,8.4751884 1.84669368,8.48026762 1.42679194,8.33154399 C0.471188357,7.99308187 0.604261388,7.13521047 1.43973593,6.29973593 C1.50504765,6.23442422 1.57200978,6.1745052 1.64064719,6.12001766 C2.58343015,5.37159303 3.57206405,5.70912451 4.4151312,6.59681082 C4.69492893,6.89141679 4.90261872,7.18254191 5.02557573,7.38910968 Z M2.38674926,7.05987493 C2.35453608,7.08544724 2.32168608,7.11484206 2.28826407,7.14826407 C2.2538417,7.18268644 2.22245529,7.21524034 2.19399921,7.245711 C2.44410102,7.25107192 2.80285632,7.23214863 3.28806967,7.1894677 C3.29111327,7.18919775 3.29406312,7.18893612 3.296925,7.18868228 C2.94275764,6.89582193 2.65018738,6.85074559 2.38674926,7.05987493 Z" id="Path"></path>
                            <path d="M15.472,0.4 C15.734431,0.4 15.9664114,0.570549886 16.044688,0.821035004 L16.584688,2.549035 C16.705425,2.93539336 16.4167841,3.328 16.012,3.328 L12.502,3.328 C12.0972159,3.328 11.808575,2.93539336 11.929312,2.549035 L12.469312,0.821035004 C12.5475886,0.570549886 12.779569,0.4 13.042,0.4 L15.472,0.4 Z M13.4831145,1.6 L13.3181145,2.128 L15.1958855,2.128 L15.0308855,1.6 L13.4831145,1.6 Z" id="Path"></path>
                        </g>
                    </g>
                </g>
            </g>
        </g>
    </g>
</svg>