<?xml version="1.0" encoding="UTF-8"?>
<svg width="26px" height="23px" viewBox="0 0 26 23" version="1.1" xmlns="http://www.w3.org/2000/svg" xmlns:xlink="http://www.w3.org/1999/xlink">
    <!-- Generator: sketchtool 52.4 (67378) - http://www.bohemiancoding.com/sketch -->
    <title>B5F79FA1-1EEC-4009-A866-CC4EB6351AE9</title>
    <desc>Created with sketchtool.</desc>
    <g id="Page-1" stroke="none" stroke-width="1" fill="none" fill-rule="evenodd">
        <g id="Assets" transform="translate(-249.000000, -227.000000)" fill="#00AFAA" fill-rule="nonzero">
            <g id="Group-21" transform="translate(250.000000, 228.000000)">
                <g id="interface2-icons-23">
                    <g id="Group-15" transform="translate(8.000000, 0.000000)">
                        <path d="M0.6,0.6 L0.6,18.4 L2.4,18.4 L2.4,0.6 L0.6,0.6 Z M0,-0.6 L3,-0.6 C3.33137085,-0.6 3.6,-0.33137085 3.6,-1.11022302e-16 L3.6,19 C3.6,19.3313708 3.33137085,19.6 3,19.6 L0,19.6 C-0.33137085,19.6 -0.6,19.3313708 -0.6,19 L-0.6,-1.11022302e-16 C-0.6,-0.33137085 -0.33137085,-0.6 0,-0.6 Z" id="Rectangle-path"></path>
                        <path d="M15.4,3.34099687 C15.1829401,3.47849143 14.9464561,3.59720218 14.6933262,3.69829733 C14.2478957,3.87619357 13.7777974,3.98884242 13.3088885,4.05126677 C13.0267374,4.08882865 12.8033447,4.10157418 12.6913667,4.10101999 C11.0913766,4.1698359 10.3374359,3.7754725 9.2630057,2.68255795 C8.43494515,1.84025909 8.00338205,1.6 6.92532468,1.6 C5.71032645,1.6 4.82603829,1.94990744 4.19728891,2.52746098 C3.83189233,2.8631052 3.63250479,3.19044147 3.56283409,3.37906648 C3.44802022,3.68991117 3.10295579,3.84882554 2.79211111,3.73401168 C2.48126643,3.61919782 2.32235205,3.27413339 2.43716591,2.9632887 C2.56798223,2.60911932 2.86453624,2.12226399 3.3855033,1.64371661 C4.23402664,0.864284163 5.40736835,0.4 6.92532468,0.4 C8.38351614,0.4 9.08662034,0.791431011 10.1104854,1.83290106 C10.9773115,2.71463998 11.4348309,2.95395444 12.6655844,2.90157418 C12.7534748,2.90157418 12.9249706,2.8917896 13.1505334,2.86176114 C13.5278143,2.81153492 13.9039059,2.72141275 14.2482526,2.5838874 C14.8191153,2.35589595 15.2369488,2.02425917 15.4657142,1.57657358 C15.7525151,1.01531432 16.6,1.21930024 16.6,1.84959123 L16.6,10.3455036 C16.6,10.4404263 16.5774785,10.5339947 16.5342858,10.6185212 C16.1580171,11.3548657 15.5129276,11.8668768 14.6933262,12.1942097 C14.2478957,12.3721059 13.7777974,12.4847547 13.3088885,12.5471791 C13.0267374,12.584741 12.8033447,12.5974865 12.6825639,12.5972462 C11.0762456,12.6427219 10.3115969,12.2464471 9.2368861,11.1723393 C8.39684132,10.3327307 7.96380491,10.0959123 6.88311688,10.0959123 C5.66957744,10.0959123 4.79496902,10.4446723 4.18013802,11.0197093 C3.82345459,11.3533069 3.63165985,11.6785584 3.56632899,11.8652602 C3.45688255,12.1780351 3.11460456,12.3428653 2.80182969,12.2334189 C2.48905482,12.1239725 2.32422457,11.7816945 2.43367101,11.4689196 C2.55827521,11.112827 2.84659411,10.6238869 3.36044639,10.1432929 C4.19650825,9.36134393 5.36370178,8.89591232 6.88311688,8.89591232 C8.33839276,8.89591232 9.04147281,9.28041177 10.0676418,10.3060476 C10.9479302,11.1858431 11.4236934,11.4324047 12.6655844,11.3974865 C12.7534748,11.3974865 12.9249706,11.3877019 13.1505334,11.3576735 C13.5278143,11.3074472 13.9039059,11.2173251 14.2482526,11.0797997 C14.7681878,10.8721477 15.1611798,10.5785183 15.4,10.1895401 L15.4,3.34099687 Z" id="Shape"></path>
                    </g>
                    <path d="M11.3669143,17.5994083 C11.0358703,17.5846952 10.7794333,17.3044037 10.7941464,16.9733596 C10.8088595,16.6423156 11.089151,16.3858786 11.4201951,16.4005917 C16.3432478,16.6193941 20.0285714,17.4682357 20.0285714,18.9047619 C20.0285714,20.5681665 15.5686222,21.4571429 9.71428571,21.4571429 C3.91867482,21.4571429 -0.6,20.5380904 -0.6,18.9047619 C-0.6,17.4748258 2.52941728,16.6710234 7.22802522,16.4009884 C7.55885017,16.3819755 7.84244981,16.6347491 7.86146274,16.965574 C7.88047566,17.296399 7.62770208,17.5799986 7.29687712,17.5990116 C3.51228853,17.8165167 0.6,18.5645487 0.6,18.9047619 C0.6,19.3900775 4.86307121,20.2571429 9.71428571,20.2571429 C14.6073261,20.2571429 18.8285714,19.415746 18.8285714,18.9047619 C18.8285714,18.907421 18.1031263,18.5501238 16.8835339,18.2692147 C15.4300928,17.9344432 13.449495,17.6919674 11.3669143,17.5994083 Z" id="Shape"></path>
                </g>
            </g>
        </g>
    </g>
</svg>