<svg xmlns="http://www.w3.org/2000/svg" width="22" height="23" viewBox="0 0 22 23">
    <g fill="#00AFAA" fill-rule="nonzero">
        <path d="M11 22.573c6.042 0 10.94-4.898 10.94-10.94S17.042.693 11 .693.06 5.591.06 11.633 4.958 22.573 11 22.573zm0-1.2c-5.38 0-9.74-4.36-9.74-9.74 0-5.379 4.36-9.74 9.74-9.74s9.74 4.361 9.74 9.74c0 5.38-4.36 9.74-9.74 9.74z"/>
        <path d="M11.287 5.527c-.428 1.241-.26 2.624.905 3.889.071.077.147.154.225.23 1.043 1.004 1.85 1.166 3.195.982.65-.09.856-.082 1.103.064.078.047.158.11.24.192.468.468 1.056.797 1.73 1.01a6.803 6.803 0 0 0 2.652.262.6.6 0 0 0 .53-.588C21.944 5.598 17.065.767 11 .767h-.587a.6.6 0 0 0-.597.66 8.218 8.218 0 0 0 1.516 3.977l-.045.123zm9.37 5.46a5.48 5.48 0 0 1-1.61-.237c-.502-.158-.923-.394-1.243-.714a2.427 2.427 0 0 0-.477-.376c-.56-.332-.966-.346-1.879-.221-1.015.14-1.465.049-2.198-.658a4.215 4.215 0 0 1-.176-.179c-.836-.907-.948-1.829-.653-2.684a1.76 1.76 0 0 1 .122-.285.6.6 0 0 0-.048-.681 7.014 7.014 0 0 1-1.386-2.985c5.159.056 9.316 4.023 9.548 9.02zM1.328 15.048c.118-.048.338-.126.622-.204.447-.124.89-.2 1.291-.207.504-.008.888.096 1.13.308.278.242.678.395 1.36.571.274.072 1.394.333 1.386.331.605.146 1.084.276 1.545.426 2.858.932 4.173 2.426 3.725 5.24a.6.6 0 0 0 1.186.188c.556-3.5-1.182-5.474-4.54-6.569-.495-.161-1.002-.299-1.636-.451-.004-.001-1.108-.26-1.366-.326-.497-.129-.784-.238-.87-.313-.499-.438-1.164-.617-1.939-.604-.515.008-1.054.1-1.592.249-.335.092-.599.186-.758.252a.6.6 0 1 0 .456 1.11zM16.408 13.09c-.608-.126-1.233.095-1.492.74-.127.307-.152.631-.098.983.03.189.068.337.153.624.16.535.164.662.056.782-.61.677-.3 1.606.49 2.001.76.38 1.71.178 2.446-.601.68-.847.868-1.679.664-2.52-.203-1.059-1.147-1.912-2.22-2.01zm1.05 2.282c.12.482.02.936-.4 1.46-.351.369-.734.45-1.005.315-.142-.071-.153-.104-.134-.126.495-.549.477-1.003.202-1.927a3.383 3.383 0 0 1-.116-.462.631.631 0 0 1 .022-.348c.012-.03.045-.042.209-.009.606.059 1.116.522 1.214 1.059l.008.038zM6.354 2.546l.009.024a.605.605 0 0 0-.783-.37.6.6 0 0 0-.347.774l-.009-.024c.235.619.124 1.29-.217 1.964a3.33 3.33 0 0 1-.34.548c-.409.505.164 1.209.741.911.078-.04.228-.106.42-.174.268-.094.53-.155.76-.17.453-.028.66.097.744.515.08.419.206.808.405 1.306.408 1.026.421 1.064.402 1.217-.01.083-.174.188-.822.286-.312.048-.636.11-1.037.199l-.472.106c-2.668.608-3.515.526-4.171-.786a.6.6 0 1 0-1.074.536c1.008 2.015 2.334 2.145 5.512 1.42.212-.049.332-.076.462-.104.378-.083.678-.141.96-.184 1.116-.17 1.736-.569 1.832-1.322.037-.29-.014-.582-.136-.941a7.96 7.96 0 0 0-.164-.433c-.01-.028-.14-.343-.178-.438a5.893 5.893 0 0 1-.342-1.093c-.215-1.075-.993-1.545-1.997-1.481a3.18 3.18 0 0 0-.174.016c.265-.76.306-1.541.016-2.302z"/>
    </g>
</svg>
