<?xml version="1.0" encoding="UTF-8"?>
<svg width="237px" height="38px" viewBox="0 0 237 38" version="1.1" xmlns="http://www.w3.org/2000/svg" xmlns:xlink="http://www.w3.org/1999/xlink">
    <!-- Generator: sketchtool 51.3 (57544) - http://www.bohemiancoding.com/sketch -->
    <title>BA2EC32E-E8D3-4203-8141-6C97465DC292</title>
    <desc>Created with sketchtool.</desc>
    <defs>
        <polygon id="path-1" points="0.025789864 0.13823622 6.45700304 0.13823622 6.45700304 6.17912913 0.025789864 6.17912913"></polygon>
        <polygon id="path-3" points="0 37.8617638 189.534341 37.8617638 189.534341 0.299212598 0 0.299212598"></polygon>
    </defs>
    <g id="Page-1" stroke="none" stroke-width="1" fill="none" fill-rule="evenodd">
        <g id="Wordpress-settings--tooltip-1" transform="translate(-1018.000000, -107.000000)">
            <g id="HereLogo" transform="translate(1018.000000, 107.000000)">
                <g id="Group">
                    <g id="Page-1" transform="translate(47.225197, 0.000000)">
                        <path d="M6.63609079,14.3984992 L9.42789724,14.3984992 C12.3411399,14.3984992 13.8790254,13.1747197 13.8790254,10.2924047 C13.8790254,7.64736535 12.3009678,6.50227874 9.02341649,6.50227874 L6.63609079,6.50227874 L6.63609079,14.3984992 Z M9.22581019,18.8597591 L6.63609079,18.8597591 L6.63609079,29.322326 L3.06657122e-05,29.322326 L3.06657122e-05,1.96232598 L9.18533145,1.96232598 C16.792268,1.96232598 20.7174792,4.60736535 20.7174792,10.2924047 C20.7174792,13.8850504 18.9772,16.0564362 15.3356467,17.6751764 L22.4574517,29.322326 L14.9716447,29.322326 L9.22581019,18.8597591 Z" id="Fill-1" fill="#383C45"></path>
                        <polygon id="Fill-3" fill="#383C45" points="41.0697298 6.58127087 31.1969037 6.58127087 31.1969037 13.1352236 39.8155021 13.1352236 39.8155021 17.6754756 31.1969037 17.6754756 31.1969037 24.6635858 41.7578683 24.6635858 41.7578683 29.322326 24.5608436 29.322326 24.5608436 1.96202677 41.7578683 1.96202677"></polygon>
                        <g id="Group-7" transform="translate(124.809449, 0.160976)">
                            <mask id="mask-2" fill="white">
                                <use xlink:href="#path-1"></use>
                            </mask>
                            <g id="Clip-6"></g>
                            <path d="M6.45700304,3.17802677 C6.45700304,4.85391654 5.13868407,6.17912913 3.22146374,6.17912913 C1.34410883,6.17912913 0.025789864,4.85391654 0.025789864,3.17802677 C0.025789864,1.46353858 1.34410883,0.138026772 3.22146374,0.138026772 C5.13868407,0.138026772 6.45700304,1.46353858 6.45700304,3.17802677" id="Fill-5" fill="#48DAD0" mask="url(#mask-2)"></path>
                        </g>
                        <mask id="mask-4" fill="white">
                            <use xlink:href="#path-3"></use>
                        </mask>
                        <g id="Clip-9"></g>
                        <polygon id="Fill-8" fill="#48DAD0" mask="url(#mask-4)" points="125.514454 29.2608976 130.627348 29.2608976 130.627348 8.64365354 125.514454 8.64365354"></polygon>
                        <path d="M152.199695,3.33900315 C152.199695,5.01489291 150.881376,6.34010551 148.963849,6.34010551 C147.086801,6.34010551 145.768482,5.01489291 145.768482,3.33900315 C145.768482,1.62451496 147.086801,0.29900315 148.963849,0.29900315 C150.881376,0.29900315 152.199695,1.62451496 152.199695,3.33900315" id="Fill-10" fill="#48DAD0" mask="url(#mask-4)"></path>
                        <polygon id="Fill-11" fill="#48DAD0" mask="url(#mask-4)" points="146.447789 29.2608976 151.560683 29.2608976 151.560683 8.64365354 146.447789 8.64365354"></polygon>
                        <path d="M184.261832,8.53898898 L179.468781,25.9678236 L174.875364,8.53898898 L169.442933,8.53898898 L176.82601,31.3853669 C175.746883,32.9263118 174.199492,33.7560283 171.160213,34.2114299 L171.679997,37.8618236 C177.950828,37.3911622 181.066465,34.250926 182.664148,29.3830362 L189.534494,8.53898898 L184.261832,8.53898898 Z" id="Fill-12" fill="#48DAD0" mask="url(#mask-4)"></path>
                        <path d="M75.1703698,14.0851039 L75.1703698,29.2608677 L69.9725315,29.2608677 L69.9725315,14.8774189 C69.9725315,12.2623008 68.9164044,11.5094819 67.6167915,11.5094819 C65.8302071,11.5094819 64.7339079,12.7377496 63.5560379,14.6793402 L63.5560379,29.2608677 L58.357893,29.2608677 L58.357893,14.8774189 C58.357893,12.2623008 57.2615938,11.5094819 56.0027663,11.5094819 C54.1750899,11.5094819 53.0787907,12.7377496 51.9012273,14.6793402 L51.9012273,29.2608677 L46.7030824,29.2608677 L46.7030824,8.29982835 L51.2106355,8.29982835 L51.6163428,11.0340331 C53.1600548,8.93385984 55.1091675,7.70559213 57.8298295,7.70559213 C60.3477911,7.70559213 62.2156396,9.01315118 63.0276677,11.2321118 C64.6523371,9.05294646 66.6422352,7.70559213 69.4846401,7.70559213 C72.8962005,7.70559213 75.1703698,10.1226315 75.1703698,14.0851039" id="Fill-13" fill="#48DAD0" mask="url(#mask-4)"></path>
                        <path d="M97.4994241,18.2280614 C97.4994241,22.4586283 93.9848269,25.8882031 89.6486951,25.8882031 C85.3131768,25.8882031 81.7985795,22.4586283 81.7985795,18.2280614 C81.7985795,13.9974945 85.3131768,10.5682189 89.6486951,10.5682189 C93.9848269,10.5682189 97.4994241,13.9974945 97.4994241,18.2280614 M89.7247461,7.04648661 C83.4379684,7.04648661 78.3416337,12.0194 78.3416337,18.1535575 L78.3416337,29.2609276 L89.7247461,29.2609276 C96.0118304,29.2609276 101.109085,24.2880142 101.109085,18.1535575 C101.109085,12.0194 96.0118304,7.04648661 89.7247461,7.04648661" id="Fill-14" fill="#48DAD0" mask="url(#mask-4)"></path>
                        <path d="M89.7251754,13.5680646 C87.1296295,13.5680646 85.025655,15.6212614 85.025655,18.1537969 C85.025655,18.5861591 85.0869865,19.0047575 85.2016762,19.4015134 L88.0943729,18.6035134 C88.0526675,18.4604898 88.0302815,18.3096866 88.0302815,18.1537969 C88.0302815,17.2403008 88.7889512,16.4997496 89.7251754,16.4997496 C90.6613996,16.4997496 91.4200693,17.2403008 91.4200693,18.1537969 C91.4200693,19.0669937 90.6613996,19.8078441 89.7251754,19.8078441 C89.5727668,19.8078441 89.4249581,19.7877969 89.2845091,19.7509937 L88.5031468,22.5824425 C88.892908,22.684474 89.3022953,22.7392299 89.7251754,22.7392299 C92.3207213,22.7392299 94.4250025,20.6863323 94.4250025,18.1537969 C94.4250025,15.6212614 92.3207213,13.5680646 89.7251754,13.5680646" id="Fill-15" fill="#383C45" mask="url(#mask-4)"></path>
                        <path d="M112.566654,26.1039953 C110.968664,26.1039953 109.570614,25.2075543 108.652176,23.726452 L108.652176,14.6067512 C109.650651,13.0086567 111.008836,11.8007354 112.846018,11.8007354 C115.282716,11.8007354 116.960437,13.4374283 116.960437,18.9327669 C116.960437,24.1160268 115.16312,26.1039953 112.566654,26.1039953 M114.483874,8.05908189 C112.04779,8.05908189 110.010053,9.15060945 108.652176,10.9820898 L108.652176,0.478530709 L103.539588,0.478530709 L103.539588,29.2609874 L108.052661,29.2609874 L108.372198,27.156326 C109.730689,28.8322157 111.647909,29.8453496 113.96501,29.8453496 C119.157329,29.8453496 122.312831,25.3634441 122.312831,18.9327669 C122.312831,12.0347197 119.396828,8.05908189 114.483874,8.05908189" id="Fill-16" fill="#48DAD0" mask="url(#mask-4)"></path>
                        <path d="M141.575099,25.8313827 C140.736392,25.8313827 140.376683,25.3637134 140.376683,24.389178 L140.376683,0.478500787 L135.264095,0.478500787 L135.264095,24.5447685 C135.264095,27.9357449 137.221488,29.8456189 140.456414,29.8456189 C141.774426,29.8456189 142.973149,29.5335402 143.851721,29.1439654 L142.773208,25.6362961 C142.4135,25.7532882 142.054097,25.8313827 141.575099,25.8313827" id="Fill-17" fill="#48DAD0" mask="url(#mask-4)"></path>
                        <path d="M164.70137,25.8313827 C163.143552,25.8313827 162.464306,25.012737 162.464306,22.9858709 L162.464306,12.2294772 L166.858089,12.2294772 L167.377567,8.64371339 L162.464306,8.64371339 L162.464306,3.36560315 L157.351719,3.36560315 L157.351719,8.64371339 L154.036449,8.64371339 L154.036449,12.2294772 L157.351719,12.2294772 L157.351719,23.102863 C157.351719,27.5072724 159.548304,29.8067213 163.702588,29.8456189 C165.579636,29.8456189 167.497163,29.3387528 169.014809,28.286422 L167.217492,25.0905323 C166.299054,25.5973984 165.499905,25.8313827 164.70137,25.8313827" id="Fill-18" fill="#48DAD0" mask="url(#mask-4)"></path>
                    </g>
                    <g id="Page-1" transform="translate(0.000000, 2.094488)" fill="#383C45">
                        <polygon id="Fill-1" points="15.0525715 0.000119685039 15.0525715 10.5808756 6.63636679 10.5808756 6.63636679 0.000119685039 0 0.000119685039 0 27.3604189 6.63636679 27.3604189 6.63636679 15.6342772 15.0525715 15.6342772 15.0525715 27.3604189 21.6886316 27.3604189 21.6886316 0.000119685039"></polygon>
                        <polygon id="Fill-2" points="26.5434739 0.000119685039 26.5434739 27.3604189 43.7404986 27.3604189 43.7404986 22.7016787 33.1798407 22.7016787 33.1798407 15.7135685 41.7984391 15.7135685 41.7984391 11.1733165 33.1798407 11.1733165 33.1798407 4.61936378 43.0523601 4.61936378 43.7404986 0.000119685039"></polygon>
                    </g>
                </g>
            </g>
        </g>
    </g>
</svg>