<?xml version="1.0" encoding="UTF-8"?>
<svg width="15px" height="15px" viewBox="0 0 15 15" version="1.1" xmlns="http://www.w3.org/2000/svg" xmlns:xlink="http://www.w3.org/1999/xlink">
    <!-- Generator: sketchtool 52.4 (67378) - http://www.bohemiancoding.com/sketch -->
    <title>F16EA7C5-AC7D-42CA-B055-E9137B0000CD</title>
    <desc>Created with sketchtool.</desc>
    <g id="Page-1" stroke="none" stroke-width="1" fill="none" fill-rule="evenodd">
        <g id="Assets" transform="translate(-132.000000, -60.000000)" fill="#555D66" fill-rule="nonzero">
            <g id="web-development-icons-22-copy" transform="translate(133.000000, 61.000000)">
                <path d="M6.78320001,6.46714858 C6.52520097,6.21753529 6.51840298,5.80603421 6.76801626,5.54803517 C7.01762954,5.29003614 7.42913063,5.28323814 7.68712966,5.53285142 C8.97095678,6.77495026 8.97095678,8.76332435 7.68712966,10.0054232 L4.87394285,12.7271729 C3.60217022,13.957609 1.58464297,13.957609 0.312870336,12.7271729 C-0.970956779,11.485074 -0.970956779,9.49669995 0.328005436,8.24041843 L2.16839488,6.57018241 C2.4342268,6.32892801 2.84530148,6.34885203 3.08655588,6.61468394 C3.32781027,6.88051586 3.30788626,7.29159054 3.04205434,7.53284494 L1.21679999,9.18889827 C0.461066669,9.92006797 0.461066669,11.061706 1.21679999,11.7928757 C1.9845878,12.5357081 3.20222539,12.5357081 3.97001319,11.7928757 L6.78320001,9.07112603 C7.53893333,8.33995633 7.53893333,7.19831827 6.78320001,6.46714858 Z" id="Shape"></path>
                <path d="M6.21679999,6.96053032 C6.47479903,7.21014361 6.48159702,7.6216447 6.23198374,7.87964373 C5.98237046,8.13764277 5.57086937,8.14444076 5.31287034,7.89482748 C4.02904322,6.65272865 4.02904322,4.66435455 5.2995977,3.43547247 L8.38576536,0.272827122 C9.657538,-0.957609041 11.6750652,-0.957609041 12.9468379,0.272827122 C14.230665,1.51492595 14.230665,3.50330005 12.9587209,4.73360204 L10.8055873,6.92690936 C10.5541035,7.18308543 10.1425638,7.18688925 9.88638772,6.93540543 C9.63021165,6.68392161 9.62640783,6.27238195 9.87789165,6.01620588 L12.0429082,3.81110173 C12.7986415,3.07993203 12.7986415,1.93829397 12.0429082,1.20712428 C11.2751204,0.464291908 10.0574828,0.464291908 9.30296765,1.19390753 L6.21679999,4.35655287 C5.46106667,5.08772257 5.46106667,6.22936063 6.21679999,6.96053032 Z" id="Shape"></path>
            </g>
        </g>
    </g>
</svg>