<?xml version="1.0" encoding="UTF-8"?>
<svg width="25px" height="15px" viewBox="0 0 25 15" version="1.1" xmlns="http://www.w3.org/2000/svg" xmlns:xlink="http://www.w3.org/1999/xlink">
    <!-- Generator: sketchtool 52.4 (67378) - http://www.bohemiancoding.com/sketch -->
    <title>C1341AB2-FD65-46A2-924A-45983C7B0DBB</title>
    <desc>Created with sketchtool.</desc>
    <g id="Page-1" stroke="none" stroke-width="1" fill="none" fill-rule="evenodd">
        <g id="Assets" transform="translate(-249.000000, -271.000000)" fill="#00AFAA" fill-rule="nonzero">
            <g id="Group-7-Copy" transform="translate(250.000000, 271.000000)">
                <g id="teamwork-icons-24">
                    <path d="M11.616,7.32 C9.6675394,7.32 8.088,5.7404606 8.088,3.792 C8.088,1.8435394 9.6675394,0.264 11.616,0.264 C13.5644606,0.264 15.144,1.8435394 15.144,3.792 C15.144,5.7404606 13.5644606,7.32 11.616,7.32 Z M11.616,6.12 C12.9017189,6.12 13.944,5.0777189 13.944,3.792 C13.944,2.5062811 12.9017189,1.464 11.616,1.464 C10.3302811,1.464 9.288,2.5062811 9.288,3.792 C9.288,5.0777189 10.3302811,6.12 11.616,6.12 Z" id="Oval"></path>
                    <g id="Group" transform="translate(15.840000, 3.840000)">
                        <path d="M3.552,5.448 C1.92165542,5.448 0.6,4.12634458 0.6,2.496 C0.6,0.865655419 1.92165542,-0.456 3.552,-0.456 C5.18234458,-0.456 6.504,0.865655419 6.504,2.496 C6.504,4.12634458 5.18234458,5.448 3.552,5.448 Z M3.552,4.248 C4.51960288,4.248 5.304,3.46360288 5.304,2.496 C5.304,1.52839712 4.51960288,0.744 3.552,0.744 C2.58439712,0.744 1.8,1.52839712 1.8,2.496 C1.8,3.46360288 2.58439712,4.248 3.552,4.248 Z" id="Oval"></path>
                        <path d="M7.8,10.16 C7.8,10.4913708 7.53137085,10.76 7.2,10.76 L0,10.76 C-0.33137085,10.76 -0.6,10.4913708 -0.6,10.16 L-0.6,9.29617054 C-0.6,6.97042882 0.943218103,4.90861062 2.784,4.90861062 L4.272,4.90861062 C6.14605017,4.90861062 7.8,7.0221174 7.8,9.29617054 L7.8,10.16 Z M6.6,9.29617054 C6.6,7.62932125 5.40994983,6.10861062 4.272,6.10861062 L2.784,6.10861062 C1.69389033,6.10861062 0.6,7.57010397 0.6,9.29617054 L0.6,9.56 L6.6,9.56 L6.6,9.29617054 Z" id="Shape"></path>
                    </g>
                    <g id="Group" transform="translate(0.000000, 3.840000)">
                        <path d="M3.696,5.448 C2.06565542,5.448 0.744,4.12634458 0.744,2.496 C0.744,0.865655419 2.06565542,-0.456 3.696,-0.456 C5.32634458,-0.456 6.648,0.865655419 6.648,2.496 C6.648,4.12634458 5.32634458,5.448 3.696,5.448 Z M3.696,4.248 C4.66360288,4.248 5.448,3.46360288 5.448,2.496 C5.448,1.52839712 4.66360288,0.744 3.696,0.744 C2.72839712,0.744 1.944,1.52839712 1.944,2.496 C1.944,3.46360288 2.72839712,4.248 3.696,4.248 Z" id="Oval"></path>
                        <path d="M7.8,10.16 C7.8,10.4913708 7.53137085,10.76 7.2,10.76 L0,10.76 C-0.33137085,10.76 -0.6,10.4913708 -0.6,10.16 L-0.6,9.29617054 C-0.6,7.00341769 1.11376147,4.90861062 2.976,4.90861062 L4.464,4.90861062 C6.28523824,4.90861062 7.8,7.00555906 7.8,9.29617054 L7.8,10.16 Z M6.6,9.29617054 C6.6,7.59987684 5.52276176,6.10861062 4.464,6.10861062 L2.976,6.10861062 C1.83563612,6.10861062 0.6,7.61898376 0.6,9.29617054 L0.6,9.56 L6.6,9.56 L6.6,9.29617054 Z" id="Shape"></path>
                    </g>
                    <path d="M16.44,14 C16.44,14.3313708 16.1713708,14.6 15.84,14.6 L7.2,14.6 C6.86862915,14.6 6.6,14.3313708 6.6,14 L6.6,11.2756148 C6.6,8.48460003 8.43304533,6.09067383 10.656,6.09067383 L12.528,6.09067383 C14.7332382,6.09067383 16.44,8.45341595 16.44,11.2756148 L16.44,14 Z M15.24,11.2756148 C15.24,9.04773373 13.9707618,7.29067383 12.528,7.29067383 L10.656,7.29067383 C9.17623467,7.29067383 7.8,9.08801304 7.8,11.2756148 L7.8,13.4 L15.24,13.4 L15.24,11.2756148 Z" id="Shape"></path>
                </g>
            </g>
        </g>
    </g>
</svg>