<?xml version="1.0" encoding="UTF-8"?>
<svg width="26px" height="26px" viewBox="0 0 26 26" version="1.1" xmlns="http://www.w3.org/2000/svg" xmlns:xlink="http://www.w3.org/1999/xlink">
    <!-- Generator: sketchtool 52.4 (67378) - http://www.bohemiancoding.com/sketch -->
    <title>78670B93-CDC8-4A81-AC5E-5FF966F29BEC</title>
    <desc>Created with sketchtool.</desc>
    <g id="Page-1" stroke="none" stroke-width="1" fill="none" fill-rule="evenodd">
        <g id="Assets" transform="translate(-249.000000, -177.000000)" fill="#00AFAA" fill-rule="nonzero">
            <g id="map-location-icons-04" transform="translate(249.000000, 177.000000)">
                <g id="Group" transform="translate(3.428571, 0.000000)">
                    <path d="M17.1428571,9.57142857 C17.1428571,5.29459869 13.7176623,1.88571429 9.45714286,1.88571429 C5.21708514,1.88571429 1.77142857,5.33137085 1.77142857,9.57142857 C1.77142857,13.5249956 7.33542083,21.6039123 9.45714286,21.6571429 C11.2932615,21.6571429 17.1428571,13.3721124 17.1428571,9.57142857 Z M18.3428571,9.57142857 C18.3428571,13.9632961 12.0634104,22.8571429 9.44214754,22.8569554 C6.54853152,22.784615 0.571428571,14.1058616 0.571428571,9.57142857 C0.571428571,4.66862915 4.55434344,0.685714286 9.45714286,0.685714286 C14.3791251,0.685714286 18.3428571,4.63057138 18.3428571,9.57142857 Z" id="Shape"></path>
                    <path d="M9.45714286,13.4285714 C7.64249296,13.4285714 6.17142857,11.957507 6.17142857,10.1428571 C6.17142857,8.32820725 7.64249296,6.85714286 9.45714286,6.85714286 C11.2717927,6.85714286 12.7428571,8.32820725 12.7428571,10.1428571 C12.7428571,11.957507 11.2717927,13.4285714 9.45714286,13.4285714 Z M9.45714286,12.2285714 C10.609051,12.2285714 11.5428571,11.2947653 11.5428571,10.1428571 C11.5428571,8.99094895 10.609051,8.05714286 9.45714286,8.05714286 C8.30523466,8.05714286 7.37142857,8.99094895 7.37142857,10.1428571 C7.37142857,11.2947653 8.30523466,12.2285714 9.45714286,12.2285714 Z" id="Oval"></path>
                </g>
                <path d="M15.7162168,20.6851226 C15.3851727,20.6704095 15.1287358,20.390118 15.1434489,20.0590739 C15.1581619,19.7280299 15.4384535,19.4715929 15.7694975,19.486306 C21.3430359,19.7340188 25.2571429,20.7389922 25.2571429,22.3714286 C25.2571429,24.252272 19.9290742,25.3142857 13,25.3142857 C6.13970657,25.3142857 0.742857143,24.2166214 0.742857143,22.3714286 C0.742857143,20.7600053 4.38474372,19.802514 9.87985976,19.4867027 C10.2106847,19.4676898 10.4942844,19.7204634 10.5132973,20.0512883 C10.5323102,20.3821133 10.2795366,20.6657129 9.94871167,20.6847258 C5.34426675,20.9493491 1.94285714,21.8436164 1.94285714,22.3714286 C1.94285714,23.0686086 7.08410295,24.1142857 13,24.1142857 C18.9677781,24.1142857 24.0571429,23.0998515 24.0571429,22.3714286 C24.0571429,21.8293475 20.4138443,20.893906 15.7162168,20.6851226 Z" id="Shape"></path>
            </g>
        </g>
    </g>
</svg>