<svg width="20px" height="13px" viewBox="0 0 20 13" version="1.1" xmlns="http://www.w3.org/2000/svg" xmlns:xlink="http://www.w3.org/1999/xlink"> <g id="Page-1" stroke="none" stroke-width="1" fill="none" fill-rule="evenodd"> <g id="v2" transform="translate(-526.000000, -105.000000)" fill="#00908A" fill-rule="nonzero"> <g id="Group-10" transform="translate(527.000000, 103.000000)"> <g id="eyecon" transform="translate(0.000000, 3.000000)"> <path d="M-0.00989621675,5.10296856 C4.04352582,0.00975564677 8.23526067,-1.35422157 12.2786413,0.196154456 C13.7526716,0.761350107 15.1161787,1.68508699 16.3594167,2.85266251 C17.2019403,3.64391084 17.8735035,4.43062506 18.4226344,5.1820735 C18.6335899,5.49850676 18.6335899,5.95255707 18.4116443,6.28491313 C16.9595924,8.31778582 14.8702995,10.2898988 12.2786413,11.2836328 C8.24170215,12.8315389 4.05408867,11.4623196 0.00490688944,6.36674254 C-0.304329633,6.02432097 -0.295543321,5.48343213 -0.00989621675,5.10296856 Z M1.02852546,5.7254797 C4.73606027,10.3408371 8.35155566,11.5042273 11.8490182,10.1631757 C14.1207061,9.29212976 16.0203845,7.52765199 17.3343493,5.72772176 C16.8579467,5.09282992 16.266063,4.41121601 15.5379238,3.72739068 C14.3999359,2.65865987 13.1622094,1.82013572 11.8490182,1.3166115 C8.34583261,-0.0266345218 4.72805217,1.13083975 1.02852546,5.7254797 Z" id="Shape"></path> <path d="M9.19148936,9.86808511 C6.91419607,9.86808511 5.06808511,8.02197414 5.06808511,5.74468085 C5.06808511,3.46738756 6.91419607,1.6212766 9.19148936,1.6212766 C11.4687826,1.6212766 13.3148936,3.46738756 13.3148936,5.74468085 C13.3148936,8.02197414 11.4687826,9.86808511 9.19148936,9.86808511 Z M9.19148936,8.66808511 C10.8060409,8.66808511 12.1148936,7.35923244 12.1148936,5.74468085 C12.1148936,4.13012926 10.8060409,2.8212766 9.19148936,2.8212766 C7.57693777,2.8212766 6.26808511,4.13012926 6.26808511,5.74468085 C6.26808511,7.35923244 7.57693777,8.66808511 9.19148936,8.66808511 Z" id="Oval"></path> </g> </g> </g> </g> </svg>
