<?xml version="1.0" encoding="UTF-8"?>
<svg width="26px" height="20px" viewBox="0 0 26 20" version="1.1" xmlns="http://www.w3.org/2000/svg" xmlns:xlink="http://www.w3.org/1999/xlink">
    <!-- Generator: sketchtool 52.4 (67378) - http://www.bohemiancoding.com/sketch -->
    <title>7607FDFF-0168-4549-97C3-8F56BC1F61D3</title>
    <desc>Created with sketchtool.</desc>
    <g id="Page-1" stroke="none" stroke-width="1" fill="none" fill-rule="evenodd">
        <g id="Assets" transform="translate(-249.000000, -146.000000)">
            <g id="Group-7-Copy-2" transform="translate(249.000000, 146.000000)">
                <g id="hotel-services-icons-06">
                    <path d="M22.78,17.98 C23.4510406,17.98 23.98,17.4264379 23.98,16.72 L23.98,5.98 C23.98,5.29137085 23.4686292,4.78 22.78,4.78 L3.28,4.78 C2.59137085,4.78 2.08,5.29137085 2.08,5.98 L2.08,16.78 C2.08,17.4686292 2.59137085,17.98 3.28,17.98 L22.78,17.98 Z M22.78,19.18 L3.28,19.18 C1.92862915,19.18 0.88,18.1313708 0.88,16.78 L0.88,5.98 C0.88,4.62862915 1.92862915,3.58 3.28,3.58 L22.78,3.58 C24.1313708,3.58 25.18,4.62862915 25.18,5.98 L25.18,16.72 C25.18,18.0772831 24.1262927,19.18 22.78,19.18 Z" id="Shape" fill="#00AFAA" fill-rule="nonzero"></path>
                    <path d="M16.24,2.44 C16.24,2.11137085 15.9686292,1.84 15.64,1.84 L10.96,1.84 C10.6313708,1.84 10.36,2.11137085 10.36,2.44 L10.36,3.58 L16.24,3.58 L16.24,2.44 Z M16.84,4.78 L9.76,4.78 C9.42862915,4.78 9.16,4.51137085 9.16,4.18 L9.16,2.44 C9.16,1.44862915 9.96862915,0.64 10.96,0.64 L15.64,0.64 C16.6313708,0.64 17.44,1.44862915 17.44,2.44 L17.44,4.18 C17.44,4.51137085 17.1713708,4.78 16.84,4.78 Z" id="Shape" fill="#00AFAA" fill-rule="nonzero"></path>
                    <path d="M4.6,4 C4.6,3.66862915 4.86862915,3.4 5.2,3.4 C5.53137085,3.4 5.8,3.66862915 5.8,4 L5.8,18.4 C5.8,18.7313708 5.53137085,19 5.2,19 C4.86862915,19 4.6,18.7313708 4.6,18.4 L4.6,4 Z" id="Shape" fill="#00AFAA" fill-rule="nonzero"></path>
                    <path d="M20.8,4 L20.8,18.4" id="Shape" stroke="#00AFAA" stroke-width="1.2" stroke-linecap="round" stroke-linejoin="round"></path>
                </g>
            </g>
        </g>
    </g>
</svg>