<?xml version="1.0" encoding="UTF-8"?>
<svg width="25px" height="27px" viewBox="0 0 25 27" version="1.1" xmlns="http://www.w3.org/2000/svg" xmlns:xlink="http://www.w3.org/1999/xlink">
    <!-- Generator: sketchtool 52.4 (67378) - http://www.bohemiancoding.com/sketch -->
    <title>3F0372C9-2819-494A-895A-8D7A4CC1AFA7</title>
    <desc>Created with sketchtool.</desc>
    <g id="Page-1" stroke="none" stroke-width="1" fill="none" fill-rule="evenodd">
        <g id="Assets" transform="translate(-205.000000, -107.000000)" fill="#00AFAA" fill-rule="nonzero">
            <g id="userid" transform="translate(205.000000, 107.000000)">
                <g id="login-logout-register-icons-21">
                    <path d="M12.2,14.0857143 C8.26631918,14.0857143 5.06666667,11.0283204 5.06666667,7.24285714 C5.06666667,3.45739391 8.26631918,0.4 12.2,0.4 C16.1336808,0.4 19.3333333,3.45739391 19.3333333,7.24285714 C19.3333333,11.0283204 16.1336808,14.0857143 12.2,14.0857143 Z M12.2,12.8857143 C15.4828399,12.8857143 18.1333333,10.3530635 18.1333333,7.24285714 C18.1333333,4.13265078 15.4828399,1.6 12.2,1.6 C8.91716009,1.6 6.26666667,4.13265078 6.26666667,7.24285714 C6.26666667,10.3530635 8.91716009,12.8857143 12.2,12.8857143 Z" id="Oval"></path>
                    <path d="M2.05826966,23.6400295 C2.05865873,23.6377284 2.05898603,23.6353944 2.05925301,23.6330298 C2.05880718,23.6352725 2.05853819,23.6376509 2.05826966,23.6400295 Z M2.2,23.4 L16.5911077,23.4 C16.9224785,23.4 17.1911077,23.6686292 17.1911077,24 C17.1911077,24.3313708 16.9224785,24.6 16.5911077,24.6 L12.0666667,24.6 L2.2,24.6 C1.88109753,24.6 1.63152492,24.5668305 1.4058547,24.4621498 C1.011188,24.2790776 0.797837376,23.8967089 0.870442557,23.4727928 C1.10442291,21.3970527 1.77046222,19.2285974 3.08298527,17.3480316 C4.99707306,14.6055517 7.9691168,13.0171429 12.1333333,13.0171429 C14.6424262,13.0171429 16.3216891,13.5352575 18.066916,14.7598219 C18.3381733,14.9501535 18.4037764,15.3243453 18.2134447,15.5956025 C18.0231131,15.8668598 17.6489213,15.9324629 17.3776641,15.7421313 C15.8366823,14.6608785 14.3984893,14.2171429 12.1333333,14.2171429 C5.61782111,14.2171429 2.74781027,18.1870748 2.0873343,23.3973998 C2.12095184,23.3990409 2.15865756,23.4 2.2,23.4 Z" id="Shape"></path>
                </g>
                <g id="login-logout-register-icons-20" transform="translate(15.000000, 13.000000)">
                    <g id="Group" transform="translate(5.166667, 9.166667) rotate(-90.000000) translate(-5.166667, -9.166667) translate(0.166667, 4.166667)">
                        <path d="M5.18846154,9.66666667 C2.54882796,9.66666667 0.4,7.59742492 0.4,5.03333333 C0.4,2.46924174 2.54882796,0.4 5.18846154,0.4 C7.82809511,0.4 9.97692308,2.46924174 9.97692308,5.03333333 C9.97692308,7.59742492 7.82809511,9.66666667 5.18846154,9.66666667 Z M5.18846154,8.46666667 C7.17527483,8.46666667 8.77692308,6.92433872 8.77692308,5.03333333 C8.77692308,3.14232794 7.17527483,1.6 5.18846154,1.6 C3.20164825,1.6 1.6,3.14232794 1.6,5.03333333 C1.6,6.92433872 3.20164825,8.46666667 5.18846154,8.46666667 Z" id="Oval"></path>
                    </g>
                    <g id="Group" transform="translate(1.384615, 0.000000)">
                        <g transform="translate(2.076923, 6.666667)">
                            <path d="M1.69230769,2.83333333 C1.03794826,2.83333333 0.5,2.31530908 0.5,1.66666667 C0.5,1.01802425 1.03794826,0.5 1.69230769,0.5 C2.34666712,0.5 2.88461538,1.01802425 2.88461538,1.66666667 C2.88461538,2.31530908 2.34666712,2.83333333 1.69230769,2.83333333 Z" id="Oval"></path>
                            <path d="M2.29230769,3.8 C2.29230769,4.6 1.09230769,4.6 1.09230769,3.8 L1.09230769,2.33333333 C1.09230769,1.53333333 2.29230769,1.53333333 2.29230769,2.33333333 L2.29230769,3.8 Z" id="Shape"></path>
                        </g>
                        <path d="M1.6,5.66666667 C1.6,5.99803752 1.33137085,6.26666667 1,6.26666667 C0.66862915,6.26666667 0.4,5.99803752 0.4,5.66666667 L0.4,3.47058824 C0.4,1.77392956 1.92433013,0.4 3.69230769,0.4 C5.46028526,0.4 6.98461538,1.77392956 6.98461538,3.47058824 L6.98461538,5.66666667 C6.98461538,5.99803752 6.71598623,6.26666667 6.38461538,6.26666667 C6.05324453,6.26666667 5.78461538,5.99803752 5.78461538,5.66666667 L5.78461538,3.47058824 C5.78461538,2.46607044 4.82373841,1.6 3.69230769,1.6 C2.56087697,1.6 1.6,2.46607044 1.6,3.47058824 L1.6,5.66666667 Z" id="Shape"></path>
                    </g>
                </g>
            </g>
        </g>
    </g>
</svg>